<svg xmlns="http://www.w3.org/2000/svg" width="1920" height="1080" viewBox="0 0 1920 1080">
  <defs>
    <linearGradient id="uiGrad" x1="0%" y1="0%" x2="100%" y2="100%">
      <stop offset="0%" style="stop-color:#667eea;stop-opacity:1" />
      <stop offset="100%" style="stop-color:#764ba2;stop-opacity:1" />
    </linearGradient>
  </defs>
  <rect width="1920" height="1080" fill="url(#uiGrad)"/>
  
  <!-- UI/UX Design Elements -->
  <rect x="200" y="200" width="300" height="200" fill="white" opacity="0.9" rx="20"/>
  <rect x="220" y="220" width="260" height="30" fill="#667eea" rx="15"/>
  <rect x="220" y="270" width="200" height="15" fill="#ddd" rx="7"/>
  <rect x="220" y="300" width="160" height="15" fill="#ddd" rx="7"/>
  <rect x="220" y="330" width="240" height="15" fill="#ddd" rx="7"/>
  
  <!-- Mobile UI Mockup -->
  <rect x="600" y="150" width="200" height="350" fill="white" opacity="0.9" rx="25"/>
  <rect x="620" y="170" width="160" height="25" fill="#667eea" rx="12"/>
  <circle cx="700" cy="250" r="40" fill="#764ba2" opacity="0.7"/>
  <rect x="640" y="310" width="120" height="10" fill="#ddd" rx="5"/>
  <rect x="640" y="330" width="100" height="10" fill="#ddd" rx="5"/>
  <rect x="640" y="350" width="140" height="10" fill="#ddd" rx="5"/>
  
  <!-- Design Tools -->
  <circle cx="1200" cy="300" r="80" fill="white" opacity="0.8"/>
  <path d="M1160 300 L1180 280 L1220 280 L1240 300 L1220 320 L1180 320 Z" fill="#667eea"/>
  
  <!-- Color Palette -->
  <rect x="1400" y="200" width="40" height="40" fill="#667eea" rx="8"/>
  <rect x="1450" y="200" width="40" height="40" fill="#764ba2" rx="8"/>
  <rect x="1500" y="200" width="40" height="40" fill="#f093fb" rx="8"/>
  <rect x="1400" y="250" width="40" height="40" fill="#4facfe" rx="8"/>
  <rect x="1450" y="250" width="40" height="40" fill="#00f2fe" rx="8"/>
  <rect x="1500" y="250" width="40" height="40" fill="#43e97b" rx="8"/>
  
  <text x="960" y="900" text-anchor="middle" fill="white" font-size="32" font-family="Arial" opacity="0.8">UI/UX Design</text>
</svg>
